<svg width="56" height="56" viewBox="0 0 56 56" fill="none" xmlns="http://www.w3.org/2000/svg">
<rect width="56" height="56" rx="28" fill="#34C759"/>
<path d="M23.3326 33.3502C26.8096 36.8273 31.0326 39.5102 34.4855 39.5102C36.0376 39.5102 37.3971 38.9688 38.492 37.7657C39.1296 37.0559 39.5266 36.2257 39.5266 35.4076C39.5266 34.806 39.298 34.2285 38.7326 33.8195L35.039 31.1967C34.4735 30.8117 34.0043 30.6192 33.5712 30.6192C33.0298 30.6192 32.5365 30.932 31.983 31.4734L31.1288 32.3156C30.9965 32.4479 30.828 32.5081 30.6716 32.5081C30.4912 32.5081 30.3107 32.4359 30.1904 32.3757C29.4445 31.9787 28.1691 30.8838 26.978 29.7048C25.799 28.5257 24.7041 27.2504 24.3191 26.5045C24.259 26.3721 24.1868 26.2037 24.1868 26.0232C24.1868 25.8668 24.2349 25.7104 24.3673 25.5781L25.2215 24.6998C25.7509 24.1463 26.0757 23.6651 26.0757 23.1117C26.0757 22.6785 25.8712 22.2093 25.4741 21.6438L22.8874 17.9984C22.4663 17.4209 21.8768 17.1682 21.2271 17.1682C20.433 17.1682 19.6149 17.5292 18.9051 18.2149C17.738 19.3338 17.2207 20.7174 17.2207 22.2454C17.2207 25.6984 19.8555 29.8852 23.3326 33.3502Z" fill="white"/>
</svg>
