<svg width="54" height="62" viewBox="0 0 54 62" fill="none" xmlns="http://www.w3.org/2000/svg">
<path d="M45.6016 0C50.2397 0 53.9998 3.75963 54 8.39746C54 10.5853 53.1629 12.577 51.7916 14.0711C50.5541 15.4194 49.8155 17.3952 50.4411 19.1151C51.4495 21.8873 52 24.8793 52 28C52 39.9466 43.9422 50.0094 32.9653 53.0542C32.0982 53.2947 31.3374 53.8386 30.8875 54.6179L27.6659 60.199C26.4343 62.3326 23.3547 62.3326 22.1231 60.1991L18.3847 53.7231C17.9934 53.0452 17.3639 52.5419 16.6339 52.2598C6.90285 48.5006 0 39.0572 0 28C0 13.6406 11.6406 2 26 2C29.1202 2 32.1116 2.55028 34.8833 3.55835C36.6031 4.18383 38.5786 3.44529 39.927 2.20807C41.4213 0.836967 43.4135 0 45.6016 0Z" fill="#9FEFEC"/>
</svg>
