<svg width="12" height="12" viewBox="0 0 12 12" fill="none" xmlns="http://www.w3.org/2000/svg">
<path fill-rule="evenodd" clip-rule="evenodd" d="M10.8066 5.42329C10.6614 5.79634 10.6614 6.21023 10.8066 6.58329L10.8916 6.82829C11.2013 7.63724 10.8262 8.5473 10.0363 8.90329L9.81123 9.00329C9.44206 9.16235 9.14339 9.45026 8.97096 9.81329L8.87093 10.0383C8.51482 10.8279 7.60447 11.2029 6.79526 10.8933L6.56518 10.8083C6.19201 10.6632 5.77798 10.6632 5.40481 10.8083L5.17473 10.8933C4.36552 11.2029 3.45517 10.8279 3.09906 10.0383L2.99903 9.81329C2.83992 9.44423 2.55192 9.14566 2.18877 8.97329L1.96369 8.87329C1.17379 8.5173 0.798679 7.60724 1.10842 6.79829L1.19344 6.56829C1.33859 6.19523 1.33859 5.78134 1.19344 5.40829L1.10842 5.17829C0.798679 4.36934 1.17379 3.45928 1.96369 3.10329L2.18877 3.00329C2.54669 2.83831 2.834 2.5511 2.99903 2.19329L3.11407 1.96829C3.47057 1.17071 4.39127 0.79418 5.20474 1.11329L5.43482 1.19829C5.80799 1.34339 6.22202 1.34339 6.59519 1.19829L6.82527 1.11329C7.63448 0.80365 8.54483 1.17864 8.90094 1.96829L9.00097 2.19329C9.166 2.5511 9.45331 2.83831 9.81123 3.00329L10.0363 3.11829C10.8262 3.47428 11.2013 4.38434 10.8916 5.19329L10.8066 5.42329ZM5.36431 7.67817L8.17522 4.86818C8.26731 4.7716 8.26731 4.61975 8.17522 4.52318L7.91014 4.25818C7.81289 4.16289 7.65726 4.16289 7.56002 4.25818L5.18926 6.62817L4.43901 5.88317C4.39363 5.83484 4.33027 5.80742 4.26396 5.80742C4.19764 5.80742 4.13428 5.83484 4.0889 5.88317L3.82381 6.14818C3.77647 6.19512 3.74984 6.25902 3.74984 6.32568C3.74984 6.39233 3.77647 6.45623 3.82381 6.50317L5.0142 7.67817C5.05958 7.72651 5.12294 7.75393 5.18926 7.75393C5.25557 7.75393 5.31893 7.72651 5.36431 7.67817Z" fill="#007AFF"/>
</svg>
