<svg width="32" height="32" viewBox="0 0 32 32" fill="none" xmlns="http://www.w3.org/2000/svg">
<path fill-rule="evenodd" clip-rule="evenodd" d="M15.2133 4H16.7867C17.1365 4.00147 17.4717 4.14034 17.72 4.38667L26.8267 13.4933C27.577 14.2428 27.9991 15.2595 28 16.32V26.6667C28 27.403 27.403 28 26.6667 28H20C19.2636 28 18.6667 27.403 18.6667 26.6667V19C18.6667 18.8159 18.5174 18.6667 18.3333 18.6667H13.6667C13.4826 18.6667 13.3333 18.8159 13.3333 19V26.6667C13.3333 27.403 12.7364 28 12 28H5.33333C4.59695 28 4 27.403 4 26.6667V16.32C4.00093 15.2595 4.42297 14.2428 5.17333 13.4933L14.28 4.38667C14.5283 4.14034 14.8635 4.00147 15.2133 4ZM24.948 15.3867L16.228 6.66667H15.7746L7.05464 15.3867C6.80831 15.635 6.66944 15.9702 6.66797 16.32V25.3333H10.668V17.3333C10.668 16.597 11.2649 16 12.0013 16H20.0013C20.7377 16 21.3346 16.597 21.3346 17.3333V25.3333H25.3346V16.32C25.3332 15.9702 25.1943 15.635 24.948 15.3867Z" fill="#0A0A0A"/>
</svg>
