<svg width="32" height="32" viewBox="0 0 32 32" fill="none" xmlns="http://www.w3.org/2000/svg">
<path fill-rule="evenodd" clip-rule="evenodd" d="M16.0046 5.33334C13.0579 5.33334 10.6692 7.72116 10.6692 10.6667C10.6692 12.0812 11.2313 13.4377 12.2319 14.4379C13.2325 15.4381 14.5895 16 16.0046 16C18.9512 16 21.3399 13.6122 21.3399 10.6667C21.3399 7.72116 18.9512 5.33334 16.0046 5.33334ZM24.6078 20.88L26.5285 24.7333C26.7366 25.146 26.716 25.637 26.4742 26.0308C26.2323 26.4247 25.8037 26.6653 25.3414 26.6667H6.66769C6.20539 26.6653 5.77678 26.4247 5.53495 26.0308C5.29311 25.637 5.27254 25.146 5.48058 24.7333L7.4013 20.88C8.07996 19.5211 9.46995 18.6637 10.9893 18.6667H21.0198C22.5392 18.6637 23.9292 19.5211 24.6078 20.88Z" fill="#0A0A0A"/>
</svg>
